<svg width="107" height="17" viewBox="0 0 107 17" fill="none" xmlns="http://www.w3.org/2000/svg">
<path d="M6.05583e-05 16.7998L7.58406 -0.000196457H11.2561L18.8161 16.7998H14.6401L10.4641 7.4638C10.3041 7.1278 10.1521 6.7918 10.0081 6.4558C9.88006 6.1038 9.75206 5.7598 9.62406 5.4238C9.49606 5.0718 9.37606 4.7278 9.26406 4.3918C9.15206 4.0398 9.04806 3.7038 8.95206 3.3838L9.79206 3.3598C9.68006 3.7278 9.56806 4.0798 9.45606 4.4158C9.34406 4.7518 9.21606 5.0958 9.07206 5.4478C8.94406 5.7838 8.80806 6.1198 8.66406 6.4558C8.52006 6.7918 8.37606 7.1358 8.23206 7.4878L4.08006 16.7998H6.05583e-05ZM3.55206 13.7278L4.84806 10.6558H13.8961L14.7601 13.7278H3.55206ZM22.9536 16.7998V-0.000196457H31.0656C32.5056 -0.000196457 33.7856 0.215804 34.9056 0.647804C36.0416 1.0798 37.0096 1.6798 37.8096 2.4478C38.6096 3.2158 39.2176 4.1118 39.6336 5.1358C40.0656 6.1438 40.2816 7.2318 40.2816 8.3998C40.2816 9.5838 40.0656 10.6878 39.6336 11.7118C39.2176 12.7198 38.6096 13.6078 37.8096 14.3758C37.0256 15.1278 36.0576 15.7198 34.9056 16.1518C33.7696 16.5838 32.4896 16.7998 31.0656 16.7998H22.9536ZM27.0336 14.0158L26.4816 13.1998H30.9456C31.7936 13.1998 32.5376 13.0798 33.1776 12.8398C33.8336 12.5838 34.3696 12.2398 34.7856 11.8078C35.2176 11.3598 35.5376 10.8478 35.7456 10.2718C35.9696 9.6798 36.0816 9.0558 36.0816 8.3998C36.0816 7.7438 35.9696 7.1278 35.7456 6.5518C35.5376 5.9758 35.2176 5.4718 34.7856 5.0398C34.3536 4.5918 33.8176 4.2398 33.1776 3.9838C32.5376 3.7278 31.7936 3.5998 30.9456 3.5998H26.4096L27.0336 2.8318V14.0158Z" fill="white"/>
<path d="M45.6411 16.7998V-0.000196457H49.2891L56.2731 9.6958L53.8251 9.6718L60.8331 -0.000196457H64.4331V16.7998H60.4731V11.4238C60.4731 10.0478 60.5051 8.7838 60.5691 7.6318C60.6331 6.4638 60.7611 5.2878 60.9531 4.1038L61.3611 5.4238L55.7931 12.7198H54.2091L48.6651 5.3998L49.1211 4.1038C49.3131 5.2558 49.4411 6.4078 49.5051 7.5598C49.5691 8.7118 49.6011 9.9998 49.6011 11.4238V16.7998H45.6411ZM71.0267 16.7998V13.2718H74.7947V3.5278H71.0267V-0.000196457H82.6667V3.5278H78.8747V13.2718H82.6667V16.7998H71.0267ZM89.2817 16.7998V-0.000196457H93.0737L103.754 11.9998L103.106 11.8798C103.01 11.3038 102.938 10.7598 102.89 10.2478C102.842 9.7198 102.794 9.2078 102.746 8.7118C102.714 8.2158 102.682 7.7278 102.65 7.2478C102.634 6.7678 102.626 6.2718 102.626 5.7598C102.626 5.2478 102.626 4.7118 102.626 4.1518V-0.000196457H106.586V16.7998H102.746L91.6817 4.4158L92.7617 4.5838C92.8257 5.0478 92.8817 5.4878 92.9297 5.9038C92.9777 6.3038 93.0177 6.7038 93.0497 7.1038C93.0977 7.5038 93.1377 7.9118 93.1697 8.3278C93.2017 8.7278 93.2177 9.1678 93.2177 9.6478C93.2337 10.1118 93.2417 10.6238 93.2417 11.1838V16.7998H89.2817Z" fill="#F99125"/>
</svg>
