<svg width="197" height="18" viewBox="0 0 197 18" fill="none" xmlns="http://www.w3.org/2000/svg">
<path d="M9.64794 17.4241C8.27194 17.4241 6.99994 17.2161 5.83194 16.8001C4.66394 16.3841 3.63994 15.7921 2.75994 15.0241C1.87994 14.2401 1.19994 13.3201 0.71994 12.2641C0.23994 11.1921 -6.03795e-05 10.0081 -6.03795e-05 8.71208C-6.03795e-05 7.44808 0.24794 6.28808 0.74394 5.23208C1.25594 4.17608 1.94394 3.25608 2.80794 2.47208C3.68794 1.68808 4.71194 1.08808 5.87994 0.672081C7.06394 0.256081 8.33594 0.0480809 9.69594 0.0480809C10.6399 0.0480809 11.5599 0.160081 12.4559 0.384081C13.3519 0.608081 14.1759 0.920081 14.9279 1.32008C15.6959 1.72008 16.3439 2.17608 16.8719 2.68808L14.4719 5.76008C14.0719 5.39208 13.6239 5.06408 13.1279 4.77608C12.6479 4.47208 12.1119 4.24008 11.5199 4.08008C10.9279 3.90408 10.2639 3.81608 9.52794 3.81608C8.83994 3.81608 8.17594 3.92808 7.53594 4.15208C6.91194 4.37608 6.34394 4.69608 5.83194 5.11208C5.33594 5.52808 4.93594 6.04808 4.63194 6.67208C4.34394 7.28008 4.19994 7.97608 4.19994 8.76008C4.19994 9.52808 4.35194 10.2241 4.65594 10.8481C4.95994 11.4561 5.37594 11.9761 5.90394 12.4081C6.44794 12.8241 7.06394 13.1441 7.75194 13.3681C8.45594 13.5761 9.19994 13.6801 9.98394 13.6801C10.7359 13.6801 11.4079 13.5841 11.9999 13.3921C12.5919 13.1841 13.1279 12.9281 13.6079 12.6241C14.0879 12.3041 14.5119 12.0001 14.8799 11.7121L16.8239 14.8561C16.3759 15.2721 15.7759 15.6801 15.0239 16.0801C14.2879 16.4641 13.4559 16.7841 12.5279 17.0401C11.6159 17.2961 10.6559 17.4241 9.64794 17.4241ZM21.9667 17.1841V13.6561H25.7347V3.91208H21.9667V0.384081H33.6067V3.91208H29.8147V13.6561H33.6067V17.1841H21.9667ZM40.2217 17.1841V0.384081H44.0137L54.6937 12.3841L54.0457 12.2641C53.9497 11.6881 53.8777 11.1441 53.8297 10.6321C53.7817 10.1041 53.7337 9.59208 53.6857 9.09608C53.6537 8.60008 53.6217 8.11208 53.5897 7.63208C53.5737 7.15208 53.5657 6.65608 53.5657 6.14408C53.5657 5.63208 53.5657 5.09608 53.5657 4.53608V0.384081H57.5257V17.1841H53.6857L42.6217 4.80008L43.7017 4.96808C43.7657 5.43208 43.8217 5.87208 43.8697 6.28808C43.9177 6.68808 43.9577 7.08808 43.9897 7.48808C44.0377 7.88808 44.0777 8.29608 44.1097 8.71208C44.1417 9.11208 44.1577 9.55208 44.1577 10.0321C44.1737 10.4961 44.1817 11.0081 44.1817 11.5681V17.1841H40.2217ZM64.0108 17.1841V0.384081H77.5948V3.86408H67.9708V13.7041H77.8348V17.1841H64.0108ZM66.0748 10.2961V6.98408H76.5148V10.2961H66.0748ZM90.3474 17.4241C89.0994 17.4241 87.9554 17.2961 86.9154 17.0401C85.8914 16.7841 84.9714 16.4321 84.1554 15.9841C83.3394 15.5361 82.6034 15.0001 81.9474 14.3761L84.0834 11.3041C85.1554 12.3121 86.2354 13.0161 87.3234 13.4161C88.4274 13.8001 89.5154 13.9921 90.5874 13.9921C91.0834 13.9921 91.5634 13.9361 92.0274 13.8241C92.5074 13.7121 92.8994 13.5361 93.2034 13.2961C93.5234 13.0561 93.6834 12.7361 93.6834 12.3361C93.6834 12.0801 93.6034 11.8641 93.4434 11.6881C93.2834 11.4961 93.0674 11.3361 92.7954 11.2081C92.5234 11.0641 92.2034 10.9521 91.8354 10.8721C91.4834 10.7921 91.0994 10.7201 90.6834 10.6561C90.2674 10.5921 89.8354 10.5281 89.3874 10.4641C88.3634 10.3201 87.4434 10.1121 86.6274 9.84008C85.8274 9.55208 85.1394 9.20008 84.5634 8.78408C84.0034 8.35208 83.5794 7.84808 83.2914 7.27208C83.0034 6.69608 82.8594 6.03208 82.8594 5.28008C82.8594 4.46408 83.0514 3.72808 83.4354 3.07208C83.8194 2.41608 84.3554 1.86408 85.0434 1.41608C85.7314 0.952081 86.5154 0.600081 87.3954 0.360081C88.2914 0.120081 89.2514 8.15392e-05 90.2754 8.15392e-05C91.4274 8.15392e-05 92.4434 0.112082 93.3234 0.336082C94.2194 0.560081 95.0034 0.872081 95.6754 1.27208C96.3474 1.67208 96.9074 2.12008 97.3554 2.61608L95.1474 5.28008C94.7314 4.89608 94.2514 4.56808 93.7074 4.29608C93.1794 4.02408 92.6194 3.81608 92.0274 3.67208C91.4354 3.52808 90.8434 3.45608 90.2514 3.45608C89.6274 3.45608 89.0834 3.52008 88.6194 3.64808C88.1554 3.76008 87.7874 3.92808 87.5154 4.15208C87.2434 4.37608 87.1074 4.66408 87.1074 5.01608C87.1074 5.30408 87.2194 5.55208 87.4434 5.76008C87.6834 5.96808 87.9874 6.14408 88.3554 6.28808C88.7234 6.41608 89.1314 6.52008 89.5794 6.60008C90.0434 6.68008 90.4994 6.75208 90.9474 6.81608C91.8754 6.94408 92.7554 7.12008 93.5874 7.34408C94.4354 7.55208 95.1794 7.84008 95.8194 8.20808C96.4754 8.57608 96.9794 9.05608 97.3314 9.64808C97.6994 10.2241 97.8834 10.9681 97.8834 11.8801C97.8834 13.0481 97.5554 14.0481 96.8994 14.8801C96.2594 15.6961 95.3714 16.3281 94.2354 16.7761C93.1154 17.2081 91.8194 17.4241 90.3474 17.4241ZM161.56 17.1841V13.6561H165.328V3.91208H161.56V0.384081H173.2V3.91208H169.408V13.6561H173.2V17.1841H161.56ZM177.463 17.1841L185.047 0.384081H188.719L196.279 17.1841H192.103L187.927 7.84808C187.767 7.51208 187.615 7.17608 187.471 6.84008C187.343 6.48808 187.215 6.14408 187.087 5.80808C186.959 5.45608 186.839 5.11208 186.727 4.77608C186.615 4.42408 186.511 4.08808 186.415 3.76808L187.255 3.74408C187.143 4.11208 187.031 4.46408 186.919 4.80008C186.807 5.13608 186.679 5.48008 186.535 5.83208C186.407 6.16808 186.271 6.50408 186.127 6.84008C185.983 7.17608 185.839 7.52008 185.695 7.87208L181.543 17.1841H177.463ZM181.015 14.1121L182.311 11.0401H191.359L192.223 14.1121H181.015Z" fill="white"/>
<path d="M107.402 17.1841V3.98408H101.45V0.384081H117.53V3.98408H111.482V17.1841H107.402ZM122.394 17.1841V0.384081H135.978V3.86408H126.354V13.7041H136.218V17.1841H122.394ZM124.458 10.2961V6.98408H134.898V10.2961H124.458ZM148.73 17.4241C147.482 17.4241 146.338 17.2961 145.298 17.0401C144.274 16.7841 143.354 16.4321 142.538 15.9841C141.722 15.5361 140.986 15.0001 140.33 14.3761L142.466 11.3041C143.538 12.3121 144.618 13.0161 145.706 13.4161C146.81 13.8001 147.898 13.9921 148.97 13.9921C149.466 13.9921 149.946 13.9361 150.41 13.8241C150.89 13.7121 151.282 13.5361 151.586 13.2961C151.906 13.0561 152.066 12.7361 152.066 12.3361C152.066 12.0801 151.986 11.8641 151.826 11.6881C151.666 11.4961 151.45 11.3361 151.178 11.2081C150.906 11.0641 150.586 10.9521 150.218 10.8721C149.866 10.7921 149.482 10.7201 149.066 10.6561C148.65 10.5921 148.218 10.5281 147.77 10.4641C146.746 10.3201 145.826 10.1121 145.01 9.84008C144.21 9.55208 143.522 9.20008 142.946 8.78408C142.386 8.35208 141.962 7.84808 141.674 7.27208C141.386 6.69608 141.242 6.03208 141.242 5.28008C141.242 4.46408 141.434 3.72808 141.818 3.07208C142.202 2.41608 142.738 1.86408 143.426 1.41608C144.114 0.952081 144.898 0.600081 145.778 0.360081C146.674 0.120081 147.634 8.15392e-05 148.658 8.15392e-05C149.81 8.15392e-05 150.826 0.112082 151.706 0.336082C152.602 0.560081 153.386 0.872081 154.058 1.27208C154.73 1.67208 155.29 2.12008 155.738 2.61608L153.53 5.28008C153.114 4.89608 152.634 4.56808 152.09 4.29608C151.562 4.02408 151.002 3.81608 150.41 3.67208C149.818 3.52808 149.226 3.45608 148.634 3.45608C148.01 3.45608 147.466 3.52008 147.002 3.64808C146.538 3.76008 146.17 3.92808 145.898 4.15208C145.626 4.37608 145.49 4.66408 145.49 5.01608C145.49 5.30408 145.602 5.55208 145.826 5.76008C146.066 5.96808 146.37 6.14408 146.738 6.28808C147.106 6.41608 147.514 6.52008 147.962 6.60008C148.426 6.68008 148.882 6.75208 149.33 6.81608C150.258 6.94408 151.138 7.12008 151.97 7.34408C152.818 7.55208 153.562 7.84008 154.202 8.20808C154.858 8.57608 155.362 9.05608 155.714 9.64808C156.082 10.2241 156.266 10.9681 156.266 11.8801C156.266 13.0481 155.938 14.0481 155.282 14.8801C154.642 15.6961 153.754 16.3281 152.618 16.7761C151.498 17.2081 150.202 17.4241 148.73 17.4241Z" fill="#F99125"/>
</svg>
