<svg width="43" height="41" viewBox="0 0 43 41" fill="none" xmlns="http://www.w3.org/2000/svg">
<ellipse cx="21.5" cy="20.5" rx="21.5" ry="20.5" fill="#D9D9D9"/>
<path d="M23.3 9.25H20.1583C16.2917 9.25 13.875 11.5 13.875 15.1V19.6562H19.24L16.7387 17.3275C16.5575 17.1588 16.4729 16.945 16.4729 16.7312C16.4729 16.5175 16.5575 16.3037 16.7387 16.135C17.0892 15.8087 17.6692 15.8087 18.0196 16.135L22.0675 19.9038C22.4179 20.23 22.4179 20.77 22.0675 21.0962L18.0196 24.865C17.6692 25.1913 17.0892 25.1913 16.7387 24.865C16.3883 24.5388 16.3883 23.9987 16.7387 23.6725L19.24 21.3438H13.875V25.9C13.875 29.5 16.2917 31.75 20.1583 31.75H23.2879C27.1546 31.75 29.5713 29.5 29.5713 25.9V15.1C29.5833 11.5 27.1667 9.25 23.3 9.25Z" fill="#00255B"/>
<path d="M6.323 19.6562C5.82758 19.6562 5.41675 20.0388 5.41675 20.5C5.41675 20.9612 5.82758 21.3438 6.323 21.3438H13.8751V19.6562H6.323Z" fill="#00255B"/>
</svg>
