<svg xmlns="http://www.w3.org/2000/svg" xmlns:xlink="http://www.w3.org/1999/xlink" width="500" zoomAndPan="magnify" viewBox="0 0 375 374.999991" height="500" preserveAspectRatio="xMidYMid meet" version="1.0"><defs><g/><clipPath id="a64843fc44"><rect x="0" width="272" y="0" height="375"/></clipPath></defs><g transform="matrix(1, 0, 0, 1, 49, 0)"><g clip-path="url(#a64843fc44)"><g fill="#ffdb48" fill-opacity="1"><g transform="translate(0.622253, 326.655047)"><g><path d="M 160.96875 3.96875 C 131.820312 3.96875 106.847656 -1.925781 86.046875 -13.71875 C 65.242188 -25.507812 49.28125 -42.203125 38.15625 -63.796875 C 27.03125 -85.390625 21.46875 -110.894531 21.46875 -140.3125 C 21.46875 -162.300781 24.644531 -182.101562 31 -199.71875 C 37.363281 -217.34375 46.503906 -232.445312 58.421875 -245.03125 C 70.347656 -257.625 84.988281 -267.296875 102.34375 -274.046875 C 119.695312 -280.804688 139.238281 -284.1875 160.96875 -284.1875 C 175.539062 -284.1875 189.847656 -282.332031 203.890625 -278.625 C 217.941406 -274.914062 230.265625 -269.617188 240.859375 -262.734375 C 246.429688 -259.285156 250.144531 -255.109375 252 -250.203125 C 253.851562 -245.304688 254.25 -240.535156 253.1875 -235.890625 C 252.125 -231.253906 249.9375 -227.347656 246.625 -224.171875 C 243.3125 -220.992188 239.203125 -219.203125 234.296875 -218.796875 C 229.398438 -218.398438 224.035156 -220.0625 218.203125 -223.78125 C 209.992188 -229.070312 201.117188 -232.910156 191.578125 -235.296875 C 182.035156 -237.679688 172.363281 -238.875 162.5625 -238.875 C 143.75 -238.875 127.847656 -235.03125 114.859375 -227.34375 C 101.878906 -219.664062 92.078125 -208.539062 85.453125 -193.96875 C 78.828125 -179.394531 75.515625 -161.507812 75.515625 -140.3125 C 75.515625 -119.375 78.828125 -101.484375 85.453125 -86.640625 C 92.078125 -71.804688 101.878906 -60.546875 114.859375 -52.859375 C 127.847656 -45.179688 143.75 -41.34375 162.5625 -41.34375 C 172.632812 -41.34375 182.570312 -42.597656 192.375 -45.109375 C 202.175781 -47.628906 211.453125 -51.539062 220.203125 -56.84375 C 226.023438 -60.28125 231.253906 -61.800781 235.890625 -61.40625 C 240.535156 -61.007812 244.445312 -59.351562 247.625 -56.4375 C 250.800781 -53.519531 252.921875 -49.875 253.984375 -45.5 C 255.046875 -41.132812 254.78125 -36.632812 253.1875 -32 C 251.59375 -27.363281 248.410156 -23.320312 243.640625 -19.875 C 233.046875 -12.1875 220.394531 -6.289062 205.6875 -2.1875 C 190.976562 1.914062 176.070312 3.96875 160.96875 3.96875 Z M 160.96875 3.96875 "/></g></g></g></g></g></svg>